<svg id="katman_1" data-name="katman 1" xmlns="http://www.w3.org/2000/svg" viewBox="0 0 177.41 25.34"><title>logo</title><path d="M7.5,21.1H19a4,4,0,0,0,4-4V11.2a9.78,9.78,0,0,0-8-9.6V.9a.6.6,0,0,0-1.2,0v.6H12.7a9.75,9.75,0,0,0-9.2,9.7v5.9A4,4,0,0,0,7.5,21.1ZM17.8,9.5a2.9,2.9,0,1,1-2.9,2.9A3,3,0,0,1,17.8,9.5Zm-9.1,0a2.9,2.9,0,1,1-2.9,2.9A2.9,2.9,0,0,1,8.7,9.5Z" transform="translate(0 -0.3)" style="fill:#bac8d3"/><circle cx="8.7" cy="12" r="0.6" style="fill:#bac8d3"/><circle cx="17.8" cy="12" r="0.6" style="fill:#bac8d3"/><path d="M25.9,11.9h-.6v-.6a.65.65,0,0,0-.6-.6h-.6V17a5.23,5.23,0,0,1-5.2,5.2H7.5A5.23,5.23,0,0,1,2.3,17V10.7H1.8a.65.65,0,0,0-.6.6v.6H.6a.65.65,0,0,0-.6.6.56.56,0,0,0,.6.5h.6v6.3a6.27,6.27,0,0,0,6.3,6.3H19a6.27,6.27,0,0,0,6.3-6.3V13h.6a.65.65,0,0,0,.6-.6A.56.56,0,0,0,25.9,11.9Z" transform="translate(0 -0.3)" style="fill:#bac8d3"/><path d="M38.4,6.71a4.42,4.42,0,0,1,3.92,2V6.89h3.89v12.7H42.31v-1.8a4.49,4.49,0,0,1-3.94,2c-3.1,0-5.58-2.55-5.58-6.56S35.28,6.71,38.4,6.71Zm1.14,3.39a2.83,2.83,0,0,0-2.78,3.12,2.87,2.87,0,0,0,2.78,3.17,2.84,2.84,0,0,0,2.78-3.14A2.84,2.84,0,0,0,39.54,10.1Z" transform="translate(0 -0.3)" style="fill:#bac8d3"/><path d="M56.85,6.71c3.12,0,5.6,2.5,5.6,6.51s-2.48,6.56-5.6,6.56a4.57,4.57,0,0,1-3.92-2v7.83H49V6.89h3.89v1.8A4.48,4.48,0,0,1,56.85,6.71ZM55.68,10.1a2.85,2.85,0,0,0-2.78,3.14,2.81,2.81,0,1,0,5.58,0A2.83,2.83,0,0,0,55.68,10.1Z" transform="translate(0 -0.3)" style="fill:#bac8d3"/><path d="M64.14,3.47a2.32,2.32,0,0,1,4.62,0,2.32,2.32,0,0,1-4.62,0Zm.36,3.41h3.89v12.7H64.5Z" transform="translate(0 -0.3)" style="fill:#bac8d3"/><path d="M76,6.71A4.66,4.66,0,0,1,80,8.64V2.74h3.89V19.59H80V17.77a4.39,4.39,0,0,1-3.91,2c-3.12,0-5.6-2.55-5.6-6.56S72.93,6.71,76,6.71Zm1.14,3.39a2.83,2.83,0,0,0-2.78,3.12,2.87,2.87,0,0,0,2.78,3.17A2.84,2.84,0,0,0,80,13.24,2.84,2.84,0,0,0,77.18,10.1Z" transform="translate(0 -0.3)" style="fill:#bac8d3"/><path d="M91.51,6.71a4.42,4.42,0,0,1,3.91,2V6.89h3.89v12.7H95.43v-1.8a4.49,4.49,0,0,1-3.94,2c-3.1,0-5.58-2.55-5.58-6.56S88.39,6.71,91.51,6.71Zm1.14,3.39a2.83,2.83,0,0,0-2.78,3.12,2.87,2.87,0,0,0,2.78,3.17,2.84,2.84,0,0,0,2.78-3.14A2.84,2.84,0,0,0,92.65,10.1Z" transform="translate(0 -0.3)" style="fill:#bac8d3"/><path d="M107,6.71a4.66,4.66,0,0,1,3.92,1.93V2.74h3.89V19.59h-3.89V17.77a4.39,4.39,0,0,1-3.92,2c-3.12,0-5.6-2.55-5.6-6.56S103.86,6.71,107,6.71Zm1.14,3.39a2.83,2.83,0,0,0-2.78,3.12,2.87,2.87,0,0,0,2.78,3.17,2.84,2.84,0,0,0,2.78-3.14A2.84,2.84,0,0,0,108.11,10.1Z" transform="translate(0 -0.3)" style="fill:#bac8d3"/><path d="M127.2,19.79c-2.91,0-5-1.59-5.1-3.87h2.14c.11,1.21,1.18,2.12,2.94,2.12s2.55-.82,2.55-1.84c0-2.78-7.37-1.16-7.37-5.8,0-1.91,1.8-3.48,4.58-3.48s4.57,1.48,4.71,3.91h-2.07c-.09-1.25-1-2.16-2.71-2.16s-2.44.73-2.44,1.73c0,3,7.24,1.34,7.33,5.8C131.75,18.25,130,19.79,127.2,19.79Z" transform="translate(0 -0.3)" style="fill:#bac8d3"/><path d="M135.13,8.82h-1.62V7.12h1.62V4h2.07V7.12h3.25V8.82H137.2v7.35c0,1.23.45,1.66,1.73,1.66h1.53v1.75h-1.87c-2.21,0-3.46-.91-3.46-3.41Z" transform="translate(0 -0.3)" style="fill:#bac8d3"/><path d="M148.4,19.79c-3.53,0-6.21-2.5-6.21-6.47a6.31,6.31,0,1,1,12.61,0A6.19,6.19,0,0,1,148.4,19.79Zm0-1.82c2.16,0,4.28-1.48,4.28-4.64s-2.07-4.62-4.21-4.62-4.17,1.48-4.17,4.62S146.24,18,148.4,18Z" transform="translate(0 -0.3)" style="fill:#bac8d3"/><path d="M159.61,19.59h-2.07V7.12h2.07v2a4.2,4.2,0,0,1,4-2.25V9h-.55c-2,0-3.48.89-3.48,3.78Z" transform="translate(0 -0.3)" style="fill:#bac8d3"/><path d="M171.43,19.79c-3.55,0-6.17-2.5-6.17-6.47s2.53-6.42,6.17-6.42a5.72,5.72,0,0,1,6,6,11,11,0,0,1-.07,1.25h-10A3.92,3.92,0,0,0,171.43,18a3.43,3.43,0,0,0,3.51-2.3h2.23A5.61,5.61,0,0,1,171.43,19.79Zm-4-7.35h7.88a3.66,3.66,0,0,0-3.94-3.78A3.86,3.86,0,0,0,167.4,12.44Z" transform="translate(0 -0.3)" style="fill:#bac8d3"/></svg>